# xmcd CD database file
#
# Track frame offsets:
#	150
#	12904
#	22792
#	33132
#	43888
#	56779
#	66913
#	76294
#	86790
#	95718
#
# Disc length: 1463 seconds
#
# Revision: 1
# Processed by: cddbd v1.4PL0 Copyright (c) Steve Scherf et al.
# Submitted via: CDex 1.50beta10
#
DISCID=7a05b50a
DTITLE=Jim Reeves - Super Hits
DYEAR=1900
DGENRE=Country
TTITLE0=Four Walls
TTITLE1=Blue Boy
TTITLE2=Losing Your Love
TTITLE3=I Guess I'm Crazy
TTITLE4=Distant Drums
TTITLE5=Is It Really Over
TTITLE6=Billy Bayou
TTITLE7=He'll Have To Go
TTITLE8=Home
TTITLE9=This Is It
EXTD=
EXTT0=
EXTT1=
EXTT2=
EXTT3=
EXTT4=
EXTT5=
EXTT6=
EXTT7=
EXTT8=
EXTT9=
PLAYORDER=
